<svg xmlns="http://www.w3.org/2000/svg" version="1.1" xmlns:xlink="http://www.w3.org/1999/xlink" xmlns:svgjs="http://svgjs.com/svgjs" width="512" height="512" x="0" y="0" viewBox="0 0 682.667 682.667" style="enable-background:new 0 0 512 512" xml:space="preserve" class=""><g><defs><clipPath id="a" clipPathUnits="userSpaceOnUse"><path d="M0 512h512V0H0Z" fill="#1e61bb" data-original="#000000" class=""></path></clipPath></defs><g clip-path="url(#a)" transform="matrix(1.33333 0 0 -1.33333 0 682.667)"><path d="M0 0v365.739c0 5.523 4.478 10 10 10h477c5.522 0 10-4.477 10-10V0c0-5.523-4.478-10-10-10H10C4.478-10 0-5.523 0 0" style="fill-opacity:1;fill-rule:nonzero;stroke:none" transform="translate(7.5 93.856)" fill="#cce4ff" data-original="#fed23a" class=""></path><path d="M38.179 114.461h435.643v324.528H38.179Z" style="fill-opacity:1;fill-rule:nonzero;stroke:none" fill="#cce4ff" data-original="#fff9e9" class=""></path><path d="M433.821 114.461h40v324.528h-40z" style="fill-opacity:1;fill-rule:nonzero;stroke:none" fill="#cce4ff" data-original="#fff4d6" class=""></path><path d="m0 0-21.5 10L-43 0v129H0Z" style="fill-opacity:1;fill-rule:nonzero;stroke:none" transform="translate(390.888 42.405)" fill="#cce4ff" data-original="#ffabe7" class=""></path><path d="M0 0c-7.586 0-12.554 12.914-19.151 15.655-6.839 2.841-19.443-2.664-24.597 2.499-5.153 5.163.341 17.79-2.495 24.641-2.736 6.61-15.626 11.587-15.626 19.187 0 7.601 12.89 12.578 15.626 19.187 2.836 6.851-2.658 19.478 2.495 24.641 5.154 5.164 17.758-.341 24.597 2.5 6.597 2.74 11.565 15.654 19.151 15.654 7.587 0 12.555-12.914 19.152-15.654 6.839-2.841 19.443 2.663 24.597-2.5 5.153-5.164-.341-17.79 2.495-24.641C48.979 74.56 61.87 69.583 61.87 61.982c0-7.6-12.891-12.577-15.627-19.187-2.835-6.851 2.659-19.478-2.495-24.641-5.153-5.163-17.757.342-24.596-2.5C12.555 12.914 7.587 0 0 0" style="fill-opacity:1;fill-rule:nonzero;stroke:none" transform="translate(369.388 146.468)" fill="#cce4ff" data-original="#ff6ed4" class=""></path><path d="M0 0c-2.835 6.851 2.659 19.478-2.494 24.641-5.154 5.163-17.758-.341-24.597 2.5-6.597 2.74-11.565 15.654-19.151 15.654-7.587 0-12.555-12.914-19.153-15.654a8.737 8.737 0 0 0-.848-.297c6.987-2.118 18.801 2.754 23.749-2.203C-37.341 19.478-42.835 6.851-40 0c2.736-6.609 15.627-11.586 15.627-19.187 0-7.6-12.891-12.577-15.627-19.187-2.836-6.851 2.659-19.478-2.494-24.641-4.949-4.957-16.762-.085-23.748-2.202.29-.088.575-.184.847-.297 6.598-2.741 11.566-15.655 19.153-15.655 7.586 0 12.554 12.914 19.151 15.655 6.839 2.841 19.443-2.664 24.597 2.499C2.659-57.852-2.836-45.225 0-38.374c2.736 6.61 15.627 11.587 15.627 19.187C15.627-11.586 2.736-6.609 0 0" style="fill-opacity:1;fill-rule:nonzero;stroke:none" transform="translate(415.63 227.637)" fill="#cce4ff" data-original="#ff5ccf" class=""></path><path d="M0 0c0-12.037-9.758-21.794-21.795-21.794-12.036 0-21.794 9.757-21.794 21.794s9.758 21.794 21.794 21.794C-9.758 21.794 0 12.037 0 0" style="fill-opacity:1;fill-rule:nonzero;stroke:none" transform="translate(391.183 208.45)" fill="#cce4ff" data-original="#ffabe7" class=""></path><path d="M0 0v61.595c0 5.523 4.478 10 10 10h477c5.522 0 10-4.477 10-10v-365.74c0-5.522-4.478-10-10-10H384.5" style="stroke-width:15;stroke-linecap:round;stroke-linejoin:round;stroke-miterlimit:10;stroke-dasharray:none;stroke-opacity:1" transform="translate(7.5 398)" fill="none" stroke="#1e61bb" stroke-width="15" stroke-linecap="round" stroke-linejoin="round" stroke-miterlimit="10" stroke-dasharray="none" stroke-opacity="" data-original="#060606" class=""></path><path d="M0 0h-330c-5.522 0-10 4.477-10 10v266.145" style="stroke-width:15;stroke-linecap:round;stroke-linejoin:round;stroke-miterlimit:10;stroke-dasharray:none;stroke-opacity:1" transform="translate(347.5 83.856)" fill="none" stroke="#1e61bb" stroke-width="15" stroke-linecap="round" stroke-linejoin="round" stroke-miterlimit="10" stroke-dasharray="none" stroke-opacity="" data-original="#060606" class=""></path><path d="M0 0v205.989h-435.643v-324.528h307.822" style="stroke-width:15;stroke-linecap:round;stroke-linejoin:round;stroke-miterlimit:10;stroke-dasharray:none;stroke-opacity:1" transform="translate(473.821 233)" fill="none" stroke="#1e61bb" stroke-width="15" stroke-linecap="round" stroke-linejoin="round" stroke-miterlimit="10" stroke-dasharray="none" stroke-opacity="" data-original="#060606" class=""></path><path d="M0 0h81.321v78.539" style="stroke-width:15;stroke-linecap:round;stroke-linejoin:round;stroke-miterlimit:10;stroke-dasharray:none;stroke-opacity:1" transform="translate(392.5 114.461)" fill="none" stroke="#1e61bb" stroke-width="15" stroke-linecap="round" stroke-linejoin="round" stroke-miterlimit="10" stroke-dasharray="none" stroke-opacity="" data-original="#060606" class=""></path><path d="M0 0h258.547" style="stroke-width:15;stroke-linecap:round;stroke-linejoin:round;stroke-miterlimit:10;stroke-dasharray:none;stroke-opacity:1" transform="translate(97.263 376.21)" fill="none" stroke="#1e61bb" stroke-width="15" stroke-linecap="round" stroke-linejoin="round" stroke-miterlimit="10" stroke-dasharray="none" stroke-opacity="" data-original="#060606" class=""></path><path d="M0 0h317.475" style="stroke-width:15;stroke-linecap:round;stroke-linejoin:round;stroke-miterlimit:10;stroke-dasharray:none;stroke-opacity:1" transform="translate(97.263 330.592)" fill="none" stroke="#1e61bb" stroke-width="15" stroke-linecap="round" stroke-linejoin="round" stroke-miterlimit="10" stroke-dasharray="none" stroke-opacity="" data-original="#060606" class=""></path><path d="M0 0h180.374" style="stroke-width:15;stroke-linecap:round;stroke-linejoin:round;stroke-miterlimit:10;stroke-dasharray:none;stroke-opacity:1" transform="translate(97.263 284.974)" fill="none" stroke="#1e61bb" stroke-width="15" stroke-linecap="round" stroke-linejoin="round" stroke-miterlimit="10" stroke-dasharray="none" stroke-opacity="" data-original="#060606" class=""></path><path d="M0 0c9.693 25.519 13.997 52.699 14.7 79.917L-.031 77.923C3.3 57.945 3.564 36.752 12.89 18.32c4.38-8.656 13.313-13.777 22.871-9.926 8.063 3.248 14.49 12.21 16.952 20.337H38.249c1.042-5.412 3.961-10.99 7.828-14.894 7.275-7.342 16.842-6.557 26.358-6.545 14.846.019 29.694.054 44.541.096 9.651.027 9.669 15.027 0 15a30385.153 30385.153 0 0 0-50.458-.102c-3.13-.002-6.506-.555-9.151 1.465-2.959 2.261-3.977 5.452-4.654 8.968-1.467 7.615-12.451 6.645-14.464 0-.892-2.943-5.392-11.367-9.322-10.679-2.083.365-2.993 3.579-3.763 5.242-1.499 3.239-2.591 6.672-3.525 10.112-3.949 14.534-4.738 29.709-7.206 44.517C13.001 90.498-.089 88.07-.3 79.917-.971 53.946-5.218 28.331-14.464 3.988-17.895-5.045-3.399-8.951 0 0" style="fill-opacity:1;fill-rule:nonzero;stroke:none" transform="translate(107.865 158.13)" fill="#1e61bb" data-original="#060606" class=""></path><path d="M0 0v-119l-21.5 10-21.5-10V0" style="stroke-width:15;stroke-linecap:round;stroke-linejoin:round;stroke-miterlimit:10;stroke-dasharray:none;stroke-opacity:1" transform="translate(390.888 161.405)" fill="none" stroke="#1e61bb" stroke-width="15" stroke-linecap="round" stroke-linejoin="round" stroke-miterlimit="10" stroke-dasharray="none" stroke-opacity="" data-original="#060606" class=""></path><path d="M0 0c-7.586 0-12.554 12.914-19.151 15.655-6.839 2.841-19.443-2.664-24.597 2.499-5.153 5.163.341 17.79-2.495 24.641-2.736 6.61-15.626 11.587-15.626 19.187 0 7.601 12.89 12.578 15.626 19.187 2.836 6.851-2.658 19.478 2.495 24.641 5.154 5.164 17.758-.341 24.597 2.5 6.597 2.74 11.565 15.654 19.151 15.654 7.587 0 12.555-12.914 19.152-15.654 6.839-2.841 19.443 2.663 24.597-2.5 5.153-5.164-.341-17.79 2.495-24.641C48.979 74.56 61.87 69.583 61.87 61.982c0-7.6-12.891-12.577-15.627-19.187-2.835-6.851 2.659-19.478-2.495-24.641-5.153-5.163-17.757.342-24.596-2.5C12.555 12.914 7.587 0 0 0Z" style="stroke-width:15;stroke-linecap:round;stroke-linejoin:round;stroke-miterlimit:10;stroke-dasharray:none;stroke-opacity:1" transform="translate(369.388 146.468)" fill="none" stroke="#1e61bb" stroke-width="15" stroke-linecap="round" stroke-linejoin="round" stroke-miterlimit="10" stroke-dasharray="none" stroke-opacity="" data-original="#060606" class=""></path><path d="M0 0c0-12.037-9.758-21.794-21.795-21.794-12.036 0-21.794 9.757-21.794 21.794s9.758 21.794 21.794 21.794C-9.758 21.794 0 12.037 0 0Z" style="stroke-width:15;stroke-linecap:round;stroke-linejoin:round;stroke-miterlimit:10;stroke-dasharray:none;stroke-opacity:1" transform="translate(391.183 208.45)" fill="none" stroke="#1e61bb" stroke-width="15" stroke-linecap="round" stroke-linejoin="round" stroke-miterlimit="10" stroke-dasharray="none" stroke-opacity="" data-original="#060606" class=""></path></g></g></svg>