<svg xmlns="http://www.w3.org/2000/svg" version="1.1" xmlns:xlink="http://www.w3.org/1999/xlink" xmlns:svgjs="http://svgjs.com/svgjs" width="512" height="512" x="0" y="0" viewBox="0 0 512 512" style="enable-background:new 0 0 512 512" xml:space="preserve" class=""><g><path d="M436 212.758h-49.25l-6.109-16-4.32-11.199-3.445-8.961-10.391-26.961-6.883-17.918-4.32-11.199-5.766-14.961 74.641-28.723c12.406-4.719 26.328 1.441 31.047 13.844l22.953 59.68c-12.312 4.797-18.477 18.637-13.758 31.039 3.602 9.52 12.727 15.359 22.32 15.359l8.719-1.602 9.359 24.445L436 212.758z" style="" fill="#ffffff" data-original="#d7e9ff" class=""></path><path d="M404 436.758H28c-13.281 0-24-10.719-24-24v-64c13.281 0 24-10.719 24-24s-10.719-24-24-24v-64c0-13.281 10.719-24 24-24h376v224z" style="" fill="#d7e9ff" data-original="#94c1ff" class=""></path><path d="M20 236.758c0-13.281 10.719-24 24-24H28c-13.281 0-24 10.719-24 24v64l16 5.523v-69.523zM20 412.758v-69.281l-16 5.281v64c0 13.281 10.719 24 24 24h16c-13.281 0-24-10.719-24-24zM404 412.758v-200h80c13.281 0 24 10.719 24 24v64c-13.281 0-24 10.719-24 24s10.719 24 24 24v64c0 13.281-10.719 24-24 24h-80v-24z" style="" fill="#ffffff" data-original="#d7e9ff" class=""></path><path d="M120.238 408.758c-2.207 0-4.039-1.789-4.039-4s1.75-4 3.961-4h.078c2.211 0 4 1.789 4 4s-1.789 4-4 4zM172.238 328.758c-2.207 0-4.039-1.789-4.039-4s1.75-4 3.961-4h.078c2.211 0 4 1.789 4 4s-1.789 4-4 4zM204.238 240.758c-2.207 0-4.039-1.789-4.039-4s1.75-4 3.961-4h.078c2.211 0 4 1.789 4 4s-1.789 4-4 4zM348.234 256.758c-2.203 0-4.031-1.789-4.031-4s1.75-4 3.953-4h.078c2.219 0 4 1.789 4 4s-1.781 4-4 4zM276.234 336.758c-2.203 0-4.031-1.789-4.031-4s1.75-4 3.953-4h.078c2.219 0 4 1.789 4 4s-1.781 4-4 4zM144.238 408.758c-2.207 0-4.039-1.789-4.039-4s1.75-4 3.961-4h.078c2.211 0 4 1.789 4 4s-1.789 4-4 4zM168.238 408.758c-2.207 0-4.039-1.789-4.039-4s1.75-4 3.961-4h.078c2.211 0 4 1.789 4 4s-1.789 4-4 4zM192.238 408.758c-2.207 0-4.039-1.789-4.039-4s1.75-4 3.961-4h.078c2.211 0 4 1.789 4 4s-1.789 4-4 4zM216.238 408.758c-2.207 0-4.039-1.789-4.039-4s1.75-4 3.961-4h.078c2.211 0 4 1.789 4 4s-1.789 4-4 4zM240.238 408.758c-2.207 0-4.039-1.789-4.039-4s1.75-4 3.961-4h.078c2.211 0 4 1.789 4 4s-1.789 4-4 4zM264.234 408.758c-2.203 0-4.035-1.789-4.035-4s1.75-4 3.957-4h.078c2.219 0 4 1.789 4 4s-1.781 4-4 4zM288.234 408.758c-2.203 0-4.031-1.789-4.031-4s1.75-4 3.953-4h.078c2.219 0 4 1.789 4 4s-1.781 4-4 4zM312.234 408.758c-2.203 0-4.031-1.789-4.031-4s1.75-4 3.953-4h.078c2.219 0 4 1.789 4 4s-1.781 4-4 4z" style="" fill="#116fff" data-original="#116fff" class=""></path><path d="M108.398 212.758H66.75l278.766-107.199 5.765 14.961 4.321 11.199 6.882 17.918 10.391 26.961 3.445 8.961 10.43 27.199z" style="" fill="#d7e9ff" data-original="#94c1ff" class=""></path><path d="M307.859 167.016c-2.203 0-4.031-1.789-4.031-4s1.75-4 3.953-4h.078c2.219 0 4 1.789 4 4s-1.781 4-4 4z" style="" fill="#116fff" data-original="#116fff" class=""></path><path d="M108.398 212.758H66.75l278.766-107.199 5.765 14.961 4.321 11.199 6.882 17.918 10.391 26.961 3.445 8.961 10.43 27.199zM492 236.762c0-13.281-10.719-23.996-24-24l16 .004c13.281 0 24 10.719 24 24v64l-16 5.523v-69.527z" style="" fill="#d7e9ff" data-original="#94c1ff" class=""></path><path d="m500.797 219.602-8.742-22.844H380.641l6.109 16H436z" style="" fill="#d7e9ff" data-original="#94c1ff" class=""></path><path d="m386.75 212.758-6.141-16h-272.25l-41.609 16h41.648z" style="" fill="#5c9eff" data-original="#5c9eff" class=""></path><path d="M492 412.766v-69.828l16 5.828v64c0 13.281-10.719 24-24 24h-16c13.281 0 24-10.719 24-24zM435.203 96.391c-4.758-12.395-18.594-18.559-31-13.801l14.938-5.734c12.391-4.754 26.25 1.406 31.008 13.805l22.945 59.742-12.297 12.848-25.594-66.86z" style="" fill="#d7e9ff" data-original="#94c1ff" class=""></path><path d="M4 240.758c-2.211 0-4-1.789-4-4 0-15.438 12.562-28 28-28 2.211 0 4 1.789 4 4s-1.789 4-4 4c-11.027 0-20 8.973-20 20 0 2.211-1.789 4-4 4zM508 240.758c-2.211 0-4-1.789-4-4 0-11.027-8.969-20-20-20-2.211 0-4-1.789-4-4s1.789-4 4-4c15.438 0 28 12.562 28 28 0 2.211-1.789 4-4 4zM484 440.758c-2.211 0-4-1.789-4-4s1.789-4 4-4c11.031 0 20-8.969 20-20 0-2.211 1.789-4 4-4s4 1.789 4 4c0 15.437-12.562 28-28 28zM28 440.758c-15.438 0-28-12.562-28-28 0-2.211 1.789-4 4-4s4 1.789 4 4c0 11.031 8.973 20 20 20 2.211 0 4 1.789 4 4s-1.789 4-4 4zM28 328.758c-2.211 0-4-1.789-4-4 0-11.023-8.973-20-20-20-2.211 0-4-1.789-4-4s1.789-4 4-4c15.438 0 28 12.562 28 28 0 2.211-1.789 4-4 4z" style="" fill="#116fff" data-original="#116fff" class=""></path><path d="M4 352.758c-2.211 0-4-1.789-4-4s1.789-4 4-4c11.027 0 20-8.969 20-20 0-2.211 1.789-4 4-4s4 1.789 4 4c0 15.437-12.562 28-28 28zM484 216.758H28c-2.211 0-4-1.789-4-4s1.789-4 4-4h456c2.211 0 4 1.789 4 4s-1.789 4-4 4zM484 440.758H28c-2.211 0-4-1.789-4-4s1.789-4 4-4h456c2.211 0 4 1.789 4 4s-1.789 4-4 4zM4 304.758c-2.211 0-4-1.789-4-4v-64c0-2.211 1.789-4 4-4s4 1.789 4 4v64c0 2.211-1.789 4-4 4z" style="" fill="#116fff" data-original="#116fff" class=""></path><path d="M4 416.758c-2.211 0-4-1.789-4-4v-64c0-2.211 1.789-4 4-4s4 1.789 4 4v64c0 2.211-1.789 4-4 4zM508 352.758c-15.438 0-28-12.562-28-28 0-2.211 1.789-4 4-4s4 1.789 4 4c0 11.031 8.969 20 20 20 2.211 0 4 1.789 4 4s-1.789 4-4 4z" style="" fill="#116fff" data-original="#116fff" class=""></path><path d="M484 328.758c-2.211 0-4-1.789-4-4 0-15.438 12.562-28 28-28 2.211 0 4 1.789 4 4s-1.789 4-4 4c-11.031 0-20 8.977-20 20 0 2.211-1.789 4-4 4zM508 416.758c-2.211 0-4-1.789-4-4v-64c0-2.211 1.789-4 4-4s4 1.789 4 4v64c0 2.211-1.789 4-4 4z" style="" fill="#116fff" data-original="#116fff" class=""></path><path d="M508 304.758c-2.211 0-4-1.789-4-4v-64c0-2.211 1.789-4 4-4s4 1.789 4 4v64c0 2.211-1.789 4-4 4zM404 244.758c-2.211 0-4-1.789-4-4v-12c0-2.211 1.789-4 4-4s4 1.789 4 4v12c0 2.211-1.789 4-4 4zM404 388.758c-2.211 0-4-1.789-4-4v-24c0-2.211 1.789-4 4-4s4 1.789 4 4v24c0 2.211-1.789 4-4 4zm0-48c-2.211 0-4-1.789-4-4v-24c0-2.211 1.789-4 4-4s4 1.789 4 4v24c0 2.211-1.789 4-4 4zm0-48c-2.211 0-4-1.789-4-4v-24c0-2.211 1.789-4 4-4s4 1.789 4 4v24c0 2.211-1.789 4-4 4zM404 424.758c-2.211 0-4-1.789-4-4v-12c0-2.211 1.789-4 4-4s4 1.789 4 4v12c0 2.211-1.789 4-4 4zM436 416.758c-2.211 0-4-1.789-4-4v-176c0-2.211 1.789-4 4-4s4 1.789 4 4v176c0 2.211-1.789 4-4 4zM452 376.758c-2.211 0-4-1.789-4-4v-96c0-2.211 1.789-4 4-4s4 1.789 4 4v96c0 2.211-1.789 4-4 4zM116 312.758c-2.211 0-4-1.789-4-4v-48c0-2.211 1.789-4 4-4s4 1.789 4 4v48c0 2.211-1.789 4-4 4z" style="" fill="#116fff" data-original="#116fff" class=""></path><path d="M132 264.758h-32c-2.211 0-4-1.789-4-4s1.789-4 4-4h32c2.211 0 4 1.789 4 4s-1.789 4-4 4zM312 312.758c-2.211 0-4-1.789-4-4v-48c0-2.211 1.789-4 4-4s4 1.789 4 4v48c0 2.211-1.789 4-4 4z" style="" fill="#116fff" data-original="#116fff" class=""></path><path d="M328 264.758h-32c-2.211 0-4-1.789-4-4s1.789-4 4-4h32c2.211 0 4 1.789 4 4s-1.789 4-4 4zM148 312.758c-2.211 0-4-1.789-4-4v-48c0-2.211 1.789-4 4-4s4 1.789 4 4v48c0 2.211-1.789 4-4 4zM216 312.758c-2.211 0-4-1.789-4-4v-48c0-2.211 1.789-4 4-4s4 1.789 4 4v48c0 2.211-1.789 4-4 4z" style="" fill="#116fff" data-original="#116fff" class=""></path><path d="M215.996 296.758c-.836 0-1.68-.258-2.398-.805a3.99 3.99 0 0 1-.793-5.594l23.992-32a4.02 4.02 0 0 1 5.602-.805 4.002 4.002 0 0 1 .805 5.602l-24.008 32.008a3.986 3.986 0 0 1-3.2 1.594z" style="" fill="#116fff" data-original="#116fff" class=""></path><path d="M240.004 312.758a3.994 3.994 0 0 1-3.434-1.938l-16-26.641a4.004 4.004 0 0 1 1.371-5.492 3.992 3.992 0 0 1 5.488 1.375l16 26.641a3.995 3.995 0 0 1-1.371 5.484 3.942 3.942 0 0 1-2.054.571zM196 276.758c-2.211 0-4-1.789-4-4 0-4.406-3.59-8-8-8s-8 3.594-8 8c0 2.211-1.789 4-4 4s-4-1.789-4-4c0-8.824 7.176-16 16-16s16 7.175 16 16c0 2.211-1.789 4-4 4zM184 312.758c-8.824 0-16-7.172-16-16 0-2.211 1.789-4 4-4s4 1.789 4 4c0 4.414 3.59 8 8 8s8-3.586 8-8c0-2.211 1.789-4 4-4s4 1.789 4 4c0 8.828-7.176 16-16 16z" style="" fill="#116fff" data-original="#116fff" class=""></path><path d="M172 300.758c-2.211 0-4-1.789-4-4v-24c0-2.211 1.789-4 4-4s4 1.789 4 4v24c0 2.211-1.789 4-4 4zM260 312.758c-2.211 0-4-1.789-4-4v-48c0-2.211 1.789-4 4-4s4 1.789 4 4v48c0 2.211-1.789 4-4 4z" style="" fill="#116fff" data-original="#116fff" class=""></path><path d="M284 312.758h-24c-2.211 0-4-1.789-4-4s1.789-4 4-4h24c2.211 0 4 1.789 4 4s-1.789 4-4 4zM284 264.758h-24c-2.211 0-4-1.789-4-4s1.789-4 4-4h24c2.211 0 4 1.789 4 4s-1.789 4-4 4zM276 288.758h-16c-2.211 0-4-1.789-4-4s1.789-4 4-4h16c2.211 0 4 1.789 4 4s-1.789 4-4 4zM316 360.758H116c-2.211 0-4-1.789-4-4s1.789-4 4-4h200c2.211 0 4 1.789 4 4s-1.789 4-4 4zM260 376.758h-88c-2.211 0-4-1.789-4-4s1.789-4 4-4h88c2.211 0 4 1.789 4 4s-1.789 4-4 4zM348 320.758c-2.211 0-4-1.789-4-4v-16c0-2.211 1.789-4 4-4s4 1.789 4 4v16c0 2.211-1.789 4-4 4z" style="" fill="#116fff" data-original="#116fff" class=""></path><path d="M356 312.758h-16c-2.211 0-4-1.789-4-4s1.789-4 4-4h16c2.211 0 4 1.789 4 4s-1.789 4-4 4zM68 280.758c-2.211 0-4-1.789-4-4v-16c0-2.211 1.789-4 4-4s4 1.789 4 4v16c0 2.211-1.789 4-4 4z" style="" fill="#116fff" data-original="#116fff" class=""></path><path d="M76 272.758H60c-2.211 0-4-1.789-4-4s1.789-4 4-4h16c2.211 0 4 1.789 4 4s-1.789 4-4 4zM451.203 94.68a3.992 3.992 0 0 1-3.742-2.578c-1.898-4.988-5.633-8.934-10.523-11.109-4.891-2.172-10.344-2.316-15.359-.418-2.055.805-4.367-.25-5.156-2.316a4.004 4.004 0 0 1 2.312-5.16c7-2.664 14.609-2.453 21.453.586 6.852 3.047 12.094 8.578 14.75 15.574a4.004 4.004 0 0 1-2.312 5.16c-.47.179-.954.261-1.423.261z" style="" fill="#116fff" data-original="#116fff" class=""></path><path d="M108.398 200.758a4.003 4.003 0 0 1-3.734-2.562 4.005 4.005 0 0 1 2.297-5.172L418.719 73.102a4.007 4.007 0 0 1 5.172 2.297 3.999 3.999 0 0 1-2.297 5.172L109.836 200.493a4.064 4.064 0 0 1-1.438.265zM482.719 200.758c-11.531 0-22-7.211-26.062-17.945a4.004 4.004 0 0 1 2.328-5.156c2.047-.773 4.375.258 5.156 2.328 2.891 7.641 10.359 12.773 18.578 12.773 2.594 0 4.969-.434 7.273-1.328 2.047-.805 4.383.219 5.18 2.277a4 4 0 0 1-2.281 5.176c-3.243 1.262-6.571 1.875-10.172 1.875z" style="" fill="#116fff" data-original="#116fff" class=""></path><path d="M460.398 185.399a4 4 0 0 1-3.742-2.578c-5.469-14.379 1.734-30.613 16.047-36.188a3.998 3.998 0 0 1 5.188 2.273 4.004 4.004 0 0 1-2.281 5.18c-10.234 3.988-15.391 15.602-11.469 25.891a4.001 4.001 0 0 1-3.743 5.422z" style="" fill="#116fff" data-original="#116fff" class=""></path><path d="M474.156 154.36a4.01 4.01 0 0 1-3.734-2.562l-22.953-59.68a3.999 3.999 0 0 1 2.297-5.172 4.01 4.01 0 0 1 5.172 2.297l22.953 59.68a3.999 3.999 0 0 1-3.735 5.437zM355.602 135.719a3.995 3.995 0 0 1-3.727-2.559l-4.328-11.199a3.999 3.999 0 0 1 2.297-5.172 3.997 3.997 0 0 1 5.172 2.289l4.312 11.199a3.998 3.998 0 0 1-3.726 5.442zM369.406 171.583a3.997 3.997 0 0 1-3.734-2.559l-6.922-17.945a4.001 4.001 0 0 1 2.289-5.172c2.07-.793 4.383.227 5.172 2.289l6.922 17.945a3.995 3.995 0 0 1-2.289 5.172c-.477.184-.961.27-1.438.27zM380.641 200.758a3.997 3.997 0 0 1-3.734-2.559L372.594 187a3.998 3.998 0 0 1 2.281-5.172 3.991 3.991 0 0 1 5.172 2.289l4.328 11.199a3.999 3.999 0 0 1-2.297 5.172c-.469.184-.953.27-1.437.27zM414.875 200.758a4.01 4.01 0 0 1-3.734-2.562l-30.875-80.238a3.999 3.999 0 0 1 2.297-5.172 4.012 4.012 0 0 1 5.172 2.297l30.875 80.238a3.999 3.999 0 0 1-3.735 5.437zM432 200.758a3.995 3.995 0 0 1-3.734-2.562l-18.719-48.641a3.999 3.999 0 0 1 2.297-5.172c2.055-.781 4.375.234 5.172 2.297l18.719 48.641a3.999 3.999 0 0 1-3.735 5.437zM282 200.758a3.999 3.999 0 0 1-3.734-2.566l-5.125-13.359a4.002 4.002 0 0 1 2.305-5.168c2.07-.785 4.383.238 5.164 2.301l5.125 13.359a3.991 3.991 0 0 1-3.735 5.433z" style="" fill="#116fff" data-original="#116fff" class=""></path><path d="M262 193.157a3.998 3.998 0 0 1-3.73-2.555 4.003 4.003 0 0 1 2.285-5.176l29.852-11.523c2.047-.773 4.375.23 5.172 2.297a4.007 4.007 0 0 1-2.297 5.172l-29.836 11.516a4.029 4.029 0 0 1-1.446.269zM242.16 200.758a3.999 3.999 0 0 1-3.734-2.566 3.998 3.998 0 0 1 2.301-5.168l8.559-3.281c2.066-.793 4.375.238 5.168 2.301s-.238 4.379-2.301 5.168l-8.559 3.281a4.043 4.043 0 0 1-1.434.265z" style="" fill="#116fff" data-original="#116fff" class=""></path></g></svg>