<svg xmlns="http://www.w3.org/2000/svg" version="1.1" xmlns:xlink="http://www.w3.org/1999/xlink" xmlns:svgjs="http://svgjs.com/svgjs" width="512" height="512" x="0" y="0" viewBox="0 0 60 60" style="enable-background:new 0 0 512 512" xml:space="preserve" class=""><g><g id="Page-1" fill="none" fill-rule="evenodd"><g id="026---Tax-Approved" fill-rule="nonzero"><g id="Icons" transform="translate(1 1)"><path id="Shape" d="m43 58.0000077-40-.0000077c-1.65685425 0-3-1.3431458-3-3v-52c0-1.65685425 1.34314575-3 3-3h25.59c.1448994-.00109865.2882736.02962439.42.09l-.01.01v7.9c0 1.65685425 1.3431458 3 3 3h7.9l.01-.01c.0603756.1317264.0910986.2751006.09.42v16.89c-7.5521783 1.5335153-12.7136061 8.5402033-11.9391328 16.2074882.7744732 7.6672849 7.2328363 13.5002566 14.9391328 13.4925195z" fill="#cce4ff" data-original="#e8edfc" class=""></path><path id="Shape" d="m26 .1v7.9c0 1.65685425 1.3431458 3 3 3h3c-1.6568542 0-3-1.34314575-3-3v-7.9l.01-.01c-.1317264-.06037561-.2751006-.09109865-.42-.09l-3-.00002846c.1448994-.00107019.2882736.02965285.42.09002846z" fill="#cad9fc" data-original="#cad9fc" class=""></path><path id="Shape" d="m28 43c.0016476-7.1279237 5.0167106-13.2713758 12-14.7v-16.89c.0010986-.1448994-.0296244-.2882736-.09-.42l-.01.01h-2.988c.0581846.1288442.0881868.2686273.088.41v16.89c-7.5521783 1.5335153-12.7136061 8.5402033-11.9391328 16.2074882.7744732 7.6672849 7.2328363 13.5002566 14.9391328 13.4925118l3 .0000077c-8.2831279-.0027674-14.9972403-6.7168798-15-15.0000077z" fill="#cad9fc" data-original="#cad9fc" class=""></path><path id="Shape" d="m39.91 10.99-.01.01h-7.9c-1.6568542 0-3-1.34314575-3-3v-7.9l.01-.01c.1032471.05156562.1977362.11905784.28.2l10.42 10.42c.0809422.0822638.1484344.1767529.2.28z" fill="#a4c2f7" data-original="#a4c2f7" class=""></path><path id="Shape" d="m58 43c-.0016111 7.8933796-6.1203237 14.4349714-13.9960022 14.9633003s-14.813302-5.1373969-15.8691868-12.9598359c-1.0558848-7.8224389 4.131288-15.1247883 11.865189-16.7034644.9872004-.2017307 1.9924015-.3022508 3-.3 8.2831279.0027597 14.9972403 6.7168721 15 15z" fill="#cce4ff" data-original="#e8edfc" class=""></path><path id="Shape" d="m43 28c-.514 0-1.0203333.025-1.519.075 7.6639514.7669193 13.5015278 7.2136823 13.5064306 14.9159087.0049027 7.7022264-5.8244618 14.1564159-13.4874306 14.9330913.494.049.994.076 1.5.076 8.2842712-.0000001 14.9999998-6.7157288 14.9999998-15s-6.7157286-14.9999999-14.9999998-15z" fill="#cad9fc" data-original="#cad9fc" class=""></path></g><g id="Icons_copy_2" fill="#fff" transform="translate(1)"><path id="Shape" d="m3 59h3c-1.65685425 0-3-1.3431458-3-3v-52c0-1.65685425 1.34314575-3 3-3h18.226c-3.594-.006-9.946 0-21.226 0-1.65685425 0-3 1.34314575-3 3v52c0 1.6568542 1.34314575 3 3 3z" fill="#ffffff" data-original="#ffffff" class=""></path></g><g id="Icons_copy"><path id="Rectangle-path" d="m0 48h2v8h-2z" fill="#ffffff" data-original="#ffffff" class=""></path><g fill="#428dff"><path id="Shape" d="m1 49c.55228475 0 1-.4477153 1-1v-44c0-1.1045695.8954305-2 2-2h25v7c0 2.209139 1.790861 4 4 4h7v12.24c0 .5522847.4477153 1 1 1s1-.4477153 1-1v-12.83c.0028408-.5292086-.2072539-1.0373277-.583-1.41l-10.417-10.418c-.3734101-.37452418-.8811341-.58409537-1.41-.582h-25.59c-2.209139 0-4 1.790861-4 4v44c0 .5522847.44771525 1 1 1zm30-40v-5.586l7.589 7.586h-5.589c-1.1045695 0-2-.8954305-2-2z" fill="#007aff" data-original="#428dff" class=""></path><path id="Shape" d="m1.02 53c-.55228475.0027614-1.00223858-.4427153-1.005-.995s.44271525-1.0022386.995-1.005h.01c.55228475 0 1 .4477153 1 1s-.44771525 1-1 1z" fill="#007aff" data-original="#428dff" class=""></path><path id="Shape" d="m4 60h28.36c.5522847 0 1-.4477153 1-1s-.4477153-1-1-1h-28.36c-1.1045695 0-2-.8954305-2-2 0-.5522847-.44771525-1-1-1s-1 .4477153-1 1c0 2.209139 1.790861 4 4 4z" fill="#007aff" data-original="#428dff" class=""></path><path id="Shape" d="m19 5h-13c-.55228475 0-1 .44771525-1 1s.44771525 1 1 1h13c.5522847 0 1-.44771525 1-1s-.4477153-1-1-1z" fill="#007aff" data-original="#428dff" class=""></path><path id="Shape" d="m6 12h6c.5522847 0 1-.4477153 1-1s-.4477153-1-1-1h-6c-.55228475 0-1 .4477153-1 1s.44771525 1 1 1z" fill="#007aff" data-original="#428dff" class=""></path><path id="Shape" d="m31 31c0-.5522847-.4477153-1-1-1h-24c-.55228475 0-1 .4477153-1 1s.44771525 1 1 1h24c.5522847 0 1-.4477153 1-1z" fill="#007aff" data-original="#428dff" class=""></path><path id="Shape" d="m27 36c0-.5522847-.4477153-1-1-1h-20c-.55228475 0-1 .4477153-1 1s.44771525 1 1 1h20c.5522847 0 1-.4477153 1-1z" fill="#007aff" data-original="#428dff" class=""></path><path id="Shape" d="m24 41c0-.5522847-.4477153-1-1-1h-17c-.55228475 0-1 .4477153-1 1s.44771525 1 1 1h17c.5522847 0 1-.4477153 1-1z" fill="#007aff" data-original="#428dff" class=""></path><path id="Shape" d="m6 45c-.55228475 0-1 .4477153-1 1s.44771525 1 1 1h7c.5522847 0 1-.4477153 1-1s-.4477153-1-1-1z" fill="#007aff" data-original="#428dff" class=""></path><path id="Shape" d="m6 18h3v8c0 .5522847.44771525 1 1 1 .5522847 0 1-.4477153 1-1v-8h3c.5522847 0 1-.4477153 1-1s-.4477153-1-1-1h-8c-.55228475 0-1 .4477153-1 1s.44771525 1 1 1z" fill="#007aff" data-original="#428dff" class=""></path><path id="Shape" d="m35.555 16.168c-.2206502-.1472282-.4907558-.2007572-.7508787-.1488077-.2601229.0519496-.488948.2051208-.6361213.4258077l-2.168 3.255-2.168-3.252c-.306518-.4595009-.9274991-.583518-1.387-.277s-.583518.9274991-.277 1.387l2.632 3.942-2.63 3.945c-.306518.4595009-.1825009 1.080482.277 1.387s1.080482.1825009 1.387-.277l2.166-3.255 2.168 3.252c.1982824.297245.5400812.4661283.8966441.4430332s.6737195-.2346599.832-.555.1336383-.7007882-.0646441-.9980332l-2.632-3.942 2.63-3.945c.3069815-.4589663.1838733-1.0798794-.275-1.387z" fill="#007aff" data-original="#428dff" class=""></path><path id="Shape" d="m17.406 22.623-1.32 2.971c-.1450498.3265407-.104874.70566.1053937.9945472s.5586825.4436536.914.406c.3553175-.0376535.6635565-.2620065.8086063-.5885472l1.069-2.406h4.034l1.069 2.406c.1604876.3612446.5187103.5940502.914.594.1378766-.0004134.274137-.0297094.4-.086.242429-.1076536.4321539-.3072157.5274258-.5547725s.088284-.5228235-.0194258-.7652275l-1.32-2.97-.012-.027-2.668-6c-.160402-.3613564-.5186429-.5942858-.914-.5942858s-.753598.2329294-.914.5942858l-2.668 6zm3.594-3.161 1.128 2.538h-2.256z" fill="#007aff" data-original="#428dff" class=""></path><path id="Shape" d="m44 28c-8.836556 0-16 7.163444-16 16s7.163444 16 16 16 16-7.163444 16-16c-.0104696-8.8322157-7.1677843-15.9895304-16-16zm0 30c-5.6624714 0-10.7673795-3.4109905-12.9343135-8.6424319-2.166934-5.2314415-.9691534-11.2530911 3.0348186-15.257063 4.0039719-4.003972 10.0256215-5.2017526 15.257063-3.0348186 5.2314414 2.166934 8.6424319 7.2718421 8.6424319 12.9343135-.0082673 7.7285595-6.2714405 13.9917327-14 14z" fill="#007aff" data-original="#428dff" class=""></path><path id="Shape" d="m52.354 39.237-12.3 10.405-3.35-3.349c-.3923789-.3789722-1.0160848-.3735524-1.4018186.0121814s-.3911536 1.0094397-.0121814 1.4018186l4 4c.3678263.3676454.9560505.3919917 1.353.056l13-11c.2820405-.2280077.418523-.5908495.3566689-.9482127s-.3123481-.6532253-.6546147-.773175-.7226501-.0451829-.9940542.1953877z" fill="#007aff" data-original="#428dff" class=""></path></g></g></g></g></g></svg>