<svg xmlns="http://www.w3.org/2000/svg" version="1.1" xmlns:xlink="http://www.w3.org/1999/xlink" xmlns:svgjs="http://svgjs.com/svgjs" width="512" height="512" x="0" y="0" viewBox="0 0 64 64" style="enable-background:new 0 0 512 512" xml:space="preserve" class=""><g><g id="Firefighter_truck" data-name="Firefighter truck"><path d="m3 45v-9l5-8h18v4h5v-4h31v17z" fill="#cce4ff" data-original="#ff6464" class=""></path><path d="m62 28v5h-24v-1h-7v-4z" fill="#cce4ff" data-original="#f25151" class=""></path><path d="m20 20h24v4h-24z" fill="#cce4ff" data-original="#484451" class=""></path><path d="m25 20h5v4h-5z" fill="#cce4ff" data-original="#625d6b" class=""></path><path d="m35 20h5v4h-5z" fill="#cce4ff" data-original="#625d6b" class=""></path><path d="m56 20h5v4h-5z" fill="#cce4ff" data-original="#484451" class=""></path><path d="m13 24h6v4h-6z" fill="#cce4ff" data-original="#625d6b" class=""></path><path d="m45.34 30a1.3408 1.3408 0 0 1 -1.34-1.34v-10.32a2.169 2.169 0 0 1 1.1992-1.9414l3.6016-1.7968a2.6806 2.6806 0 0 1 2.3984 0l3.6016 1.7968a2.1684 2.1684 0 0 1 1.1992 1.9414v10.32a1.3408 1.3408 0 0 1 -1.34 1.34z" fill="#cce4ff" data-original="#625d6b" class=""></path><circle cx="50" cy="22" fill="#cce4ff" r="2" data-original="#484451" class=""></circle><path d="m8 24a2.0027 2.0027 0 0 1 -2-2v-10a2.0027 2.0027 0 0 1 2-2h7a4.1409 4.1409 0 0 1 2.8789 1.1563l.9131.874a3.9333 3.9333 0 0 1 1.208 2.8291v9.1406z" fill="#cce4ff" data-original="#484451" class=""></path><path d="m1 45h62v4h-62z" fill="#cce4ff" data-original="#625d6b" class=""></path><path d="m26 32h12v13h-12z" fill="#cce4ff" data-original="#e6edfc" class=""></path><path d="m3 36v2h9v-6h-6.5z" fill="#cce4ff" data-original="#625d6b" class=""></path><path d="m16 32h6v6h-6z" fill="#cce4ff" data-original="#625d6b" class=""></path><circle cx="44" cy="39" fill="#cce4ff" r="2" data-original="#e6edfc" class=""></circle><circle cx="56" cy="39" fill="#cce4ff" r="2" data-original="#e6edfc" class=""></circle><circle cx="15" cy="49" fill="#cce4ff" r="5" data-original="#484451" class=""></circle><circle cx="48" cy="49" fill="#cce4ff" r="5" data-original="#484451" class=""></circle><g fill="#2a223a"><path d="m63 44v-16a1 1 0 0 0 -1-1h-5v-2h4a1 1 0 0 0 1-1v-4a1 1 0 0 0 -1-1h-4v-.66a3.1634 3.1634 0 0 0 -1.7529-2.8359l-3.5987-1.7961a3.682 3.682 0 0 0 -3.2939-.001l-3.6065 1.7989a3.1625 3.1625 0 0 0 -1.748 2.8341v.66h-22v-4.1406a4.948 4.948 0 0 0 -1.5156-3.5508l-.9131-.874a5.1348 5.1348 0 0 0 -3.5713-1.4346h-7a3.0033 3.0033 0 0 0 -3 3v10a3.0033 3.0033 0 0 0 3 3h4v2h-4a1 1 0 0 0 -.8477.47l-5 8a.9994.9994 0 0 0 -.1523.53v8h-1a1 1 0 0 0 -1 1v4a1 1 0 0 0 1 1h8.09a5.9925 5.9925 0 0 0 11.82 0h21.18a5.9925 5.9925 0 0 0 11.82 0h9.09a1 1 0 0 0 1-1v-4a1 1 0 0 0 -1-1zm-11.69 0a5.9767 5.9767 0 0 0 -6.62 0h-5.69v-10h22v10zm-9.22 4h-21.18a5.9486 5.9486 0 0 0 -.7215-2h22.6233a5.9486 5.9486 0 0 0 -.7218 2zm.91-23v2h-12a1 1 0 0 0 -1 1v3h-3v-3a1 1 0 0 0 -1-1h-6v-2zm-7-2v-2h3v2zm-2 0h-3v-2h3zm-5 0h-3v-2h3zm-2 10h10v11h-10zm34-1h-22a1 1 0 0 0 -1-1h-6v-2h11.0344a2.3367 2.3367 0 0 0 2.3056 2h9.32a2.3367 2.3367 0 0 0 2.3054-2h4.0346zm-1-11v2h-3v-2zm-15-2.66a1.17 1.17 0 0 1 .6455-1.0468l3.6045-1.7981a1.6633 1.6633 0 0 1 .749-.1767 1.6861 1.6861 0 0 1 .7539.1777l3.5971 1.7949a1.171 1.171 0 0 1 .65 1.049v10.32a.34.34 0 0 1 -.34.34h-9.32a.34.34 0 0 1 -.34-.34zm-2 4.66h-2v-2h2zm-19-2v2h-3v-2zm-17 1v-10a1.0006 1.0006 0 0 1 1-1h7a3.1415 3.1415 0 0 1 2.1875.8789l.9131.8731a2.94 2.94 0 0 1 .8994 2.1074v8.1406h-11a1.0006 1.0006 0 0 1 -1-1zm7 3h4v2h-4zm-7.9454 8h4.9454v4h-7v-.7129zm-2.0546 6h8a1 1 0 0 0 1-1v-6a1 1 0 0 0 -1-1h-4.6954l1.25-2h16.4454v15h-6.69a5.9767 5.9767 0 0 0 -6.62 0h-7.69zm5.8118 7a5.9486 5.9486 0 0 0 -.7218 2h-7.09v-2zm5.1882 7a4 4 0 1 1 4-4 4.0039 4.0039 0 0 1 -4 4zm33 0a4 4 0 1 1 4-4 4.0039 4.0039 0 0 1 -4 4zm14-5h-8.09a5.9486 5.9486 0 0 0 -.7215-2h8.8115z" fill="#007aff" data-original="#2a223a" class=""></path><path d="m16 39h6a1 1 0 0 0 1-1v-6a1 1 0 0 0 -1-1h-6a1 1 0 0 0 -1 1v6a1 1 0 0 0 1 1zm1-6h4v4h-4z" fill="#007aff" data-original="#2a223a" class=""></path><path d="m12 41a1 1 0 0 0 -1-1h-1a1 1 0 0 0 0 2h1a1 1 0 0 0 1-1z" fill="#007aff" data-original="#2a223a" class=""></path><path d="m30 37h4a1 1 0 0 0 0-2h-4a1 1 0 0 0 0 2z" fill="#007aff" data-original="#2a223a" class=""></path><path d="m34 40h-4a1 1 0 0 0 0 2h4a1 1 0 0 0 0-2z" fill="#007aff" data-original="#2a223a" class=""></path><path d="m44 36a3 3 0 1 0 3 3 3.0033 3.0033 0 0 0 -3-3zm0 4a1 1 0 1 1 1-1 1.0006 1.0006 0 0 1 -1 1z" fill="#007aff" data-original="#2a223a" class=""></path><path d="m56 36a3 3 0 1 0 3 3 3.0033 3.0033 0 0 0 -3-3zm0 4a1 1 0 1 1 1-1 1.0006 1.0006 0 0 1 -1 1z" fill="#007aff" data-original="#2a223a" class=""></path><path d="m50 25a3 3 0 1 0 -3-3 3.0033 3.0033 0 0 0 3 3zm0-4a1 1 0 1 1 -1 1 1.0006 1.0006 0 0 1 1-1z" fill="#007aff" data-original="#2a223a" class=""></path></g></g></g></svg>