<svg xmlns="http://www.w3.org/2000/svg" version="1.1" xmlns:xlink="http://www.w3.org/1999/xlink" xmlns:svgjs="http://svgjs.com/svgjs" width="512" height="512" x="0" y="0" viewBox="0 0 46 60" style="enable-background:new 0 0 512 512" xml:space="preserve" class=""><g><g id="Page-1" fill="none" fill-rule="evenodd"><g id="015---Tax-Money-Bag" fill-rule="nonzero"><g id="Icons" transform="translate(1 1)"><path id="Shape" d="m43.52 50.51c-1.1291451 4.4240677-5.1241642 7.5120649-9.69 7.49h-23.66c-4.56583578.0220649-8.56085494-3.0659323-9.69-7.49-2.23-9.14 3.69-20.93 10.75-29.51h21.54c7.06 8.58 12.98 20.37 10.75 29.51z" fill="#cce4ff" data-original="#e8edfc" class=""></path><path id="Shape" d="m32.77 21h-3c7.06 8.58 12.98 20.37 10.75 29.51-1.1291451 4.4240677-5.1241642 7.5120649-9.69 7.49h3c4.5658358.0220649 8.5608549-3.0659323 9.69-7.49 2.23-9.14-3.69-20.93-10.75-29.51z" fill="#cad9fc" data-original="#cad9fc" class=""></path><path id="Shape" d="m35.07 9.61-4.07 6.39h-18l-4.07-6.39c-.5883838-.92509855-.6252642-2.0974864-.0961888-3.05773743.52907541-.96025103 1.5398344-1.55541455 2.6361888-1.55226257h2.61l-.35-.85c-.384167-.9256186-.2807652-1.98193737.2756047-2.81548797.5563699-.83355059 1.4922207-1.33423471 2.4943953-1.33451203h11c1.0021746.00027732 1.9380254.50096144 2.4943953 1.33451203.5563699.8335506.6597717 1.88986937.2756047 2.81548797l-.35.85h2.61c1.0963544-.00315198 2.1071134.59201154 2.6361888 1.55226257s.492195 2.13263888-.0961888 3.05773743z" fill="#cce4ff" data-original="#a4c2f7" class=""></path><path id="Shape" d="m29.53 5c1.0963544-.00315198 2.1071134.59201154 2.6361888 1.55226257s.492195 2.13263888-.0961888 3.05773743l-4.07 6.39h3l4.07-6.39c.5883838-.92509855.6252642-2.0974864.0961888-3.05773743s-1.5398344-1.55541455-2.6361888-1.55226257z" fill="#7facfa" data-original="#7facfa" class=""></path><g fill="#e8edfc"><path id="Shape" d="m29.92 5-2.92 7" fill="#cce4ff" data-original="#e8edfc" class=""></path><path id="Shape" d="m17 12-2.92-7" fill="#cce4ff" data-original="#e8edfc" class=""></path><path id="Shape" d="m36 18.5c.0021341.6636932-.2605727 1.3008186-.729877 1.770123-.4693044.4693043-1.1064298.7320111-1.770123.729877h-23c-1.38071187 0-2.5-1.1192881-2.5-2.5s1.11928813-2.5 2.5-2.5h23c1.3807119 0 2.5 1.1192881 2.5 2.5z" fill="#cce4ff" data-original="#e8edfc" class=""></path></g><path id="Shape" d="m33.5 16h-3c1.3807119 0 2.5 1.1192881 2.5 2.5s-1.1192881 2.5-2.5 2.5h3c1.3807119 0 2.5-1.1192881 2.5-2.5s-1.1192881-2.5-2.5-2.5z" fill="#cad9fc" data-original="#cad9fc" class=""></path></g><g id="Icons_copy_2" fill="#fff" transform="translate(1 1)"><path id="Shape" d="m.48 50.51c1.12914506 4.4240677 5.12416422 7.5120649 9.69 7.49h3c-4.56583578.0220649-8.56085494-3.0659323-9.69-7.49-2.23-9.14 3.69-20.93 10.75-29.51h-.73c-1.3807119 0-2.5-1.1192881-2.5-2.5s1.1192881-2.5 2.5-2.5h2.5l-4.07-6.39c-.5883838-.92509855-.6252642-2.0974864-.0961888-3.05773743s1.5398344-1.55541455 2.6361888-1.55226257h2.61l-.35-.85c-.384167-.9256186-.2807652-1.98193737.2756047-2.81548797.5563699-.83355059 1.4922207-1.33423471 2.4943953-1.33451203h-3c-1.0021746.00027732-1.9380254.50096144-2.4943953 1.33451203-.5563699.8335506-.6597717 1.88986937-.2756047 2.81548797l.35.85h-2.61c-1.0963544-.00315198-2.10711339.59201154-2.6361888 1.55226257-.5290754.96025103-.492195 2.13263888.0961888 3.05773743l4.07 6.39h-2.5c-1.38071187 0-2.5 1.1192881-2.5 2.5s1.11928813 2.5 2.5 2.5h.73c-7.06 8.58-12.98 20.37-10.75 29.51z" fill="#ffffff" data-original="#ffffff" class=""></path></g><g id="Icons_copy"><path id="Shape" d="m.36 43.4 1.974.327c-.46099788 2.4975994-.42122815 5.0618976.117 7.544l-1.943.474c-.60227016-2.744325-.65257987-5.5810448-.148-8.345z" fill="#ffffff" data-original="#ffffff" class=""></path><g fill="#428dff"><path id="Shape" d="m1.038 48.545c-.55228475.0030376-1.00246243-.4422153-1.0055-.9945s.44221525-1.0024624.9945-1.0055h.011c.55228475 0 1 .4477153 1 1s-.44771525 1-1 1z" fill="#007aff" data-original="#428dff" class=""></path><path id="Shape" d="m11.17 60h23.66c5.0317635.0369892 9.436026-3.3724825 10.661-8.253 2.238-9.173-3.414-20.7-9.818-28.96 1.1952924-.408509 2.0678365-1.4429488 2.269-2.69 1.8611282.2802215 3.4335448 1.5274943 4.13 3.276.2060022.5125202.7884798.7610022 1.301.555s.7610022-.7884798.555-1.301c-.9123765-2.300176-2.9373168-3.9742977-5.368-4.438 2.0834644-1.3821562 3.3661408-3.6898553 3.44-6.189 0-.5522847-.4477153-1-1-1s-1 .4477153-1 1c-.1171444 2.0776211-1.2993054 3.947296-3.126 4.944-.6428685-.6045239-1.491546-.941993-2.374-.944h-.678l3.092-4.854c.7838909-1.23303253.8331066-2.79537733.1283768-4.07530316-.7047297-1.27992583-2.051266-2.07376676-3.5123768-2.07069684h-1.161c.3116536-1.19742606.0507354-2.4716807-.706477-3.45024418-.7572124-.97856349-1.925205-1.55092401-3.162523-1.54975582h-11c-1.237318-.00116819-2.4053106.57119233-3.162523 1.54975582-.7572124.97856348-1.0181306 2.25281812-.706477 3.45024418h-1.161c-1.4612579-.00293706-2.80783299.79118506-3.51238575 2.07137596s-.65494898 2.84269972.12938575 4.07562404l3.091 4.853h-.678c-1.70562673-.0040823-3.16448872 1.2249178-3.45007286 2.9064709s.68573224 3.3232791 2.29707286 3.8825291c-2.18047113 2.7834241-4.1157063 5.750517-5.784 8.868-.98208885 1.8332376-1.83645309 3.7320847-2.557 5.683-.74644344 1.9610119-1.29777549 3.990825-1.646 6.06-.05418573.2660295.00595682.5425837.16573107.7620831s.40446136.3617231.67426893.3919169c.53575628.0612544 1.02960053-.296761 1.138-.825.32646051-1.9465728.84533763-3.8559334 1.549-5.7.68907384-1.867497 1.50704265-3.6848714 2.448-5.439 1.81712631-3.3928142 3.9545205-6.6040958 6.383-9.59h3.282c.5522847 0 1-.4477153 1-1s-.4477153-1-1-1h-4.5c-.8284271 0-1.5-.6715729-1.5-1.5s.6715729-1.5 1.5-1.5h23c.8284271 0 1.5.6715729 1.5 1.5s-.6715729 1.5-1.5 1.5h-12.5c-.5522847 0-1 .4477153-1 1s.4477153 1 1 1h11.288c6.431 7.938 12.423 19.413 10.261 28.271-1.0073597 3.9849271-4.6088708 6.7644395-8.719 6.729h-23.66c-4.11037351.0361664-7.71228156-2.7436523-8.719-6.729-.1347125-.5331223-.67458865-.8574562-1.20853122-.7260327-.53394257.1314236-.8615984.6692901-.73346878 1.2040327 1.22575329 4.8797226 5.6298193 8.2882161 10.661 8.251zm3.379-44-3.775-5.926c-.3928791-.61716452-.4174252-1.39959715-.0640033-2.04017426.3534218-.6405771 1.0284054-1.03706235 1.7600033-1.03382574h1.947l2.66 6.385c.1375472.3297561.440569.5610828.7949198.6068415.3543508.0457586.7061964-.1010025.923-.385s.2656275-.6620854.1280802-.9918415l-3.269-7.846c-.2570836-.61721781-.188733-1.32207676.1821494-1.87840041.3708824-.55632364.9952328-.89051602 1.6638506-.89059959h11c.6686178.00008357 1.2929682.33427595 1.6638506.89059959.3708824.55632365.439233 1.2611826.1821494 1.87840041l-3.269 7.846c-.2126296.5097588.0282412 1.0953704.538 1.308s1.0953704-.0282412 1.308-.538l2.66-6.385h1.947c.7319877-.00447367 1.4079405.39129897 1.7622809 1.03182132.3543404.64052236.3304515 1.42345118-.0622809 2.04117868l-3.779 5.927z" fill="#007aff" data-original="#428dff" class=""></path><path id="Shape" d="m12 50c.5522847 0 1-.4477153 1-1v-8h3c.5522847 0 1-.4477153 1-1s-.4477153-1-1-1h-8c-.55228475 0-1 .4477153-1 1s.44771525 1 1 1h3v8c0 .5522847.4477153 1 1 1z" fill="#007aff" data-original="#428dff" class=""></path><path id="Shape" d="m30.445 49.832c.2206502.1472282.4907558.2007572.7508787.1488077.2601229-.0519496.488948-.2051208.6361213-.4258077l2.168-3.255 2.168 3.252c.306518.4595009.9274991.583518 1.387.277s.583518-.9274991.277-1.387l-2.632-3.942 2.63-3.945c.1982824-.297245.2229246-.6776931.0646441-.9980332-.1582805-.32034-.4754371-.5319049-.832-.555s-.6983617.1457882-.8966441.4430332l-2.166 3.255-2.168-3.252c-.3065181-.4595009-.9274991-.583518-1.387-.2769999-.4595009.306518-.583518.927499-.277 1.3869999l2.632 3.942-2.63 3.945c-.3069815.4589663-.1838733 1.0798794.275 1.387z" fill="#007aff" data-original="#428dff" class=""></path><path id="Shape" d="m19.914 49.406 1.069-2.406h4.034l1.069 2.406c.1450498.3265408.4532888.5508937.8086063.5885473.3553175.0376535.7037324-.1171128.914-.4060001.2102677-.2888872.2504435-.6680064.1053937-.9945472l-1.32-2.969-.013-.029-2.667-6c-.160402-.3613564-.5186429-.5942858-.914-.5942858s-.753598.2329294-.914.5942858l-2.667 6-.013.029-1.32 2.969c-.2242276.5047883.0032117 1.0957724.508 1.32s1.0957724-.0032117 1.32-.508zm3.086-6.944 1.128 2.538h-2.256z" fill="#007aff" data-original="#428dff" class=""></path></g></g></g></g></g></svg>