<svg xmlns="http://www.w3.org/2000/svg" version="1.1" xmlns:xlink="http://www.w3.org/1999/xlink" xmlns:svgjs="http://svgjs.com/svgjs" width="512" height="512" x="0" y="0" viewBox="0 0 512 512" style="enable-background:new 0 0 512 512" xml:space="preserve" class=""><g><g id="_x32_6_Fill_Up_A_Form"><g><path d="m362.229 63.32v76.547l-159.201 159.201-23.054 65.762c-2.178 6.375 3.878 12.537 10.252 10.252l65.763-23.001 106.24-106.187v202.866c0 24.436-19.814 44.143-44.196 44.143h-267.513c-24.382 0-44.196-19.707-44.196-44.143v-385.44c0-24.434 19.814-44.196 44.196-44.196h267.513c24.382.001 44.196 19.762 44.196 44.196z" fill="#d7e9ff" data-original="#d7e9ff" class=""></path><path d="m500.98 107.13-244.961 244.961-65.781 23.012c-6.313 2.241-12.491-3.937-10.251-10.251l23.013-65.779 244.962-244.961c6.246-6.246 16.292-6.246 22.537-.001l30.48 30.48c6.246 6.247 6.246 16.293.001 22.539z" fill="#94c1ff" data-original="#94c1ff"></path><path d="m468.992 139.118 31.988-31.988c6.246-6.246 6.246-16.292-.001-22.539l-30.48-30.48c-6.245-6.245-16.292-6.245-22.537.001l-31.989 31.988z" fill="#ffffff" data-original="#ffffff"></path><path d="m256.019 352.091-65.762 23.013c-6.373 2.23-12.499-3.896-10.269-10.269l23.012-65.762z" fill="#ffffff" data-original="#ffffff"></path><g fill="#116fff"><path d="m474.252 50.354c-8.302-8.308-21.699-8.339-30.046.003l-76.687 76.687v-63.739c0-27.299-22.208-49.507-49.504-49.507h-267.484c-27.302 0-49.51 22.208-49.51 49.507v385.45c0 27.266 22.208 49.447 49.51 49.447h267.484c27.297 0 49.504-22.182 49.504-49.447v-200.654c48.455-48.455 90.495-90.495 137.215-137.216 8.322-8.317 8.33-21.724 0-30.049zm-7.511 7.512 30.482 30.482c4.171 4.171 4.176 10.85 0 15.026l-28.232 28.232-45.504-45.504 28.23-28.233c4.037-4.037 10.988-4.034 15.024-.003zm-210.735 286.7-45.492-45.494 205.46-205.461 45.505 45.505c-.852.853-163.129 163.111-205.473 205.45zm-66.714 25.239c-.531.065-2.098 1.141-3.632-.375-.704-.71-1.005-1.836-.655-2.836l20.217-57.788 41.05 41.047zm167.603 78.95c0 21.406-17.44 38.823-38.88 38.823h-267.484c-21.44 0-38.886-17.417-38.886-38.823v-385.45c0-21.44 17.446-38.883 38.886-38.883h267.484c21.44 0 38.88 17.443 38.88 38.883v74.358l-157.648 157.645c-.385.383-1.013 1.317-1.255 2-.001.004-.004.007-.005.01-.714 2.04-22.315 63.739-23.022 65.76 0 .008 0 .013-.005.021-.744 2.148-.701 6.052-.431 7.27h-101.386c-2.936 0-5.312 2.378-5.312 5.312s2.376 5.312 5.312 5.312c118.032-.167 110.054.346 112.085-.337 1.527.276 3.857.486 6.782-.539l65.762-23.012c.707-.248 1.315-.664 1.845-1.159.046-.043.113-.054.157-.099l97.121-97.122z" fill="#116fff" data-original="#116fff" class=""></path><path d="m73.143 89.247h222.254c2.936 0 5.312-2.378 5.312-5.312s-2.376-5.312-5.312-5.312h-222.254c-2.936 0-5.312 2.378-5.312 5.312s2.376 5.312 5.312 5.312z" fill="#116fff" data-original="#116fff" class=""></path><path d="m73.143 147.597h110.417c2.936 0 5.312-2.378 5.312-5.312s-2.376-5.312-5.312-5.312h-110.417c-2.936 0-5.312 2.378-5.312 5.312 0 2.933 2.376 5.312 5.312 5.312z" fill="#116fff" data-original="#116fff" class=""></path><path d="m73.143 205.946h182.875c2.936 0 5.312-2.378 5.312-5.312s-2.376-5.312-5.312-5.312h-182.875c-2.936 0-5.312 2.378-5.312 5.312 0 2.933 2.376 5.312 5.312 5.312z" fill="#116fff" data-original="#116fff" class=""></path><path d="m73.143 264.295h133.937c2.936 0 5.312-2.378 5.312-5.312s-2.376-5.312-5.312-5.312h-133.937c-2.936 0-5.312 2.378-5.312 5.312s2.376 5.312 5.312 5.312z" fill="#116fff" data-original="#116fff" class=""></path><path d="m73.143 322.644h82.398c2.936 0 5.312-2.378 5.312-5.312s-2.376-5.312-5.312-5.312h-82.398c-2.936 0-5.312 2.378-5.312 5.312s2.376 5.312 5.312 5.312z" fill="#116fff" data-original="#116fff" class=""></path><path d="m67.831 434.03c0 2.934 2.376 5.312 5.312 5.312h223.105c2.936 0 5.312-2.378 5.312-5.312s-2.376-5.312-5.312-5.312h-223.105c-2.936 0-5.312 2.379-5.312 5.312z" fill="#116fff" data-original="#116fff" class=""></path></g></g></g></g></svg>